<svg xmlns="http://www.w3.org/2000/svg" height="800" width="1200" viewBox="-6.8015145 -2.3489 58.946459 14.0934"><path d="M11.524 4.69235c-.90346 2.4906-4.00437 4.51238-6.92537 4.5152-2.92136.002-4.55719-2.01401-3.65337-4.50462C1.84872 2.21268 4.94929.19126 7.87099.18843c2.92065-.003 4.55648 2.01366 3.65302 4.50392" fill="#1c4e9d"/><path d="M7.19726.53624l-.17251 1.98473L8.29263.53553 7.56062 2.5947 9.2483.81776l-1.24178 1.9939L9.99725 1.3649 8.3318 3.15703l2.1597-1.01847-1.97731 1.46896 2.18016-.52034L8.541 4.13175l2.05316.0141-2.18334.54963 1.78576.5461-2.06445.0176 1.3963 1.04105L7.7243 5.7841l.91263 1.46579-1.4224-1.0146.3669 1.79-.94228-1.44356-.20602 1.99249-.39829-1.77447-.76235 2.05916.17251-1.98437-1.26753 1.98543.7313-2.05881-1.68697 1.7766 1.24108-1.9939L2.47215 8.0306l1.66582-1.79211-2.159 1.01812 1.97697-1.46826-2.18088.51964 2.15406-1.04493-2.05316-.013 2.18334-.54998-1.78611-.5461 2.0648-.0176-1.39735-1.04105 1.80516.5161-.91263-1.46578 1.4217 1.01424-.36619-1.78964.94227 1.44392.20532-1.9932.39828 1.77447z" fill="#f9e20e"/><path d="M4.586 4.69955c-.32984.9091.14112 1.64818 1.05022 1.64782.90947-.001 1.91735-.7419 2.24755-1.65135.32985-.90911-.14146-1.64853-1.05057-1.64747-.9091.001-1.91735.74189-2.2472 1.651m.14888-.00035c.29986-.82727 1.21708-1.50107 2.0447-1.50178.82726-.0007 1.25553.67134.95497 1.49896-.30057.82726-1.21709 1.50106-2.04435 1.50177-.8262.0007-1.25554-.67134-.95532-1.49895" fill="#fff"/><path d="M1.74131 4.69592C2.62608 2.25717 5.29907.26468 7.74488.19836c.04022-.00071.08008-.002.1203-.002.34078-.00035.66428.0261.96979.0766.11606.0201.23.043.34607.0705.17498.0427.34431.0935.50553.15205C8.77535-.01531 7.1113-.1187 5.86564.1279 3.16018.66343.81844 2.64463 0 4.69744z" fill="#4ba3e0"/><path d="M10.72825 4.69994h-.00035c-.88441 2.43875-3.55776 4.43124-6.00357 4.4972-.03987.001-.08008.002-.1203.002-.34078.00036-.66428-.0265-.96978-.0762-.11642-.0201-.23037-.0437-.34573-.0709-.17603-.0427-.34466-.0935-.50623-.15204.91158.51082 2.57563.61419 3.82093.36795 2.7051-.53552 5.04755-2.51707 5.86529-4.56988h.00035z" fill="#87cf2e"/><path d="M18.38112 3.44422c-.00036-.18627-.09067-.32808-.26988-.42616-.16157-.0878-.37465-.13123-.63959-.13088-.12594 0-.22471.009-.29633.0268l-.32808 1.38888c.0755.01.14993.0155.22225.0155.39017-.00035.70626-.0787.94897-.23495.242-.15663.363-.36971.36266-.63923m1.25518 3.0173c-.24236.0388-.4826.0582-.72037.0582-.22014.00036-.38524-.0508-.49495-.15416-.11007-.10336-.2801-.36936-.5087-.79622-.21626-.40287-.39159-.66075-.526-.77293-.13511-.11183-.3376-.16757-.60607-.16722l-.33514 1.44074c-.01376.0568-.0201.109-.0201.15805 0 .10548.03527.19473.10794.26846l-1.26576.001c.14322-.0772.23318-.19332.26881-.34783l.74401-3.21945c.00882-.0388.0134-.084.0134-.13688 0-.0914-.04091-.16087-.12135-.21026l1.50777-.001c.54363-.0007.96273.078 1.25942.2353.26952.14358.40428.33444.40464.57292.00035.3122-.17498.5736-.52458.78422-.29563.17886-.65688.29527-1.08374.34819.22472.0275.41946.13159.58597.31009.10795.11219.22966.29563.36442.55139.22013.41769.3884.69074.50553.82268.11677.13124.26529.21626.44485.2547m4.9521-2.69791c-.13053.0847-.29387.28963-.49072.61666l-1.2573 2.1096-.46425.00036-.3249-1.80905-1.16312 1.8108-.4505.00072-.23812-2.1456c-.02258-.19685-.0441-.32984-.06456-.4004-.01975-.0695-.05997-.12912-.11783-.17815l.99625-.001c-.08502.0459-.1277.1224-.1277.23142 0 .0561.0046.1263.01375.21026l.14958 1.38324 1.17616-1.82633.37042-.00035.3316 1.81433.79305-1.3261c.11677-.1965.17463-.33548.17463-.41627 0-.0346-.01341-.0589-.04057-.0727zm2.3159.45018c-.121-.14393-.28752-.2152-.49777-.2152-.34572.00036-.6283.19192-.84808.57397-.17462.31257-.26211.63677-.26176.97332.00035.3824.17992.57326.5394.5729.11641 0 .24694-.0409.39017-.12135.13017-.0737.23989-.1598.3302-.25823zm.8823-.45332l-.53023 2.30434c-.02187.0981-.03351.16793-.03351.21026 0 .10513.08996.17533.26917.2099-.21026.0321-.4057.048-.58526.048-.1524 0-.25576-.007-.30939-.0205-.1076-.0247-.16157-.0808-.16157-.16828v-.11571c-.2808.23178-.6089.34784-.98354.3482-.33832.0007-.60149-.0991-.78881-.29916-.17004-.18556-.25506-.43286-.25506-.7412-.0007-.42403.17603-.8276.53022-1.21037.40393-.43462.90206-.653 1.49402-.6537.27375 0 .50482.0677.69356.20462l.26952-.11607zm3.73645.49078c0 .0871-.02187.22789-.06668.42086l-.32173 1.39912c-.018.0773-.02716.14429-.02716.20003 0 .10512.09208.17533.27622.2099-.2152.0317-.4579.0476-.72707.0483-.21978 0-.3302-.0649-.3302-.19438 0-.0349.01764-.1316.05397-.28963l.30868-1.3515c.03069-.14428.04657-.2487.0462-.31573 0-.16827-.11041-.2526-.32984-.25224-.24306.00036-.51858.12489-.82726.37395l-.34255 1.52576c-.02646.11959-.03986.20179-.03986.2473 0 .0808.03775.15099.11465.2106l-1.13065.001c.14323-.0879.23953-.23706.28857-.44732l.42228-1.86266c.0134-.0593.01976-.11571.01976-.16863 0-.13617-.04233-.21872-.12806-.2466l.96943-.001-.06668.28435c.13829-.0984.30268-.1845.49107-.25823.2106-.0776.39864-.11607.56515-.11607.52034-.0007.7814.19332.78175.58279m2.98927-.04544c-.1083-.14358-.2727-.21484-.49177-.21484-.34149.00035-.6216.18485-.84102.55315-.1838.3122-.27588.64347-.27517.99378.00035.3824.17992.57326.53904.57326.2466-.00035.48472-.12171.71332-.36336zm1.1624-1.7579l-.81138 3.55636c-.02152.0988-.03316.1845-.03281.25788-.00036.10195.08784.17357.26281.2159-.21096.0314-.4018.0473-.5722.0473-.17533 0-.29633-.01-.36371-.031-.08043-.0282-.121-.0804-.121-.1577 0-.0314.0064-.0699.0194-.1157-.29528.23177-.6209.34784-.97544.34819-.35454.00035-.62442-.1009-.80786-.3041-.17074-.18168-.25647-.42792-.25682-.73624-.00035-.43815.18274-.8488.55104-1.2312.40322-.42086.8897-.63218 1.46014-.63288.23354-.00035.4244.0469.57256.14146l.22049-.9257c.02258-.0949.0335-.16156.0335-.20001 0-.1016-.04232-.17851-.1277-.23107zm3.2137 2.37452l-.40569-1.5988-1.16981 1.6055c.14358.0138.4131.0226.80821.025.1704-.004.42616-.0148.7673-.0317m1.35501 1.64994l-1.1377.001c.08043-.0317.121-.0843.121-.1577-.00035-.0388-.0092-.0949-.02716-.16827l-.24271-.94685c-.24307-.0205-.54152-.0307-.89641-.0303-.40852.00035-.74965.0109-1.0227.0324-.04974.067-.27588.3757-.6791.92675-.09419.12982-.14146.21696-.14146.26282 0 .0318.02752.0596.08114.0843l-.83538.0007c.11253-.0667.24306-.20178.39052-.40568l2.35973-3.2311c.05786-.0811.08784-.14463.0875-.1898 0-.042-.0314-.072-.0942-.0896l.93557-.0007.88512 3.57047c.04057.1718.11289.2854.21625.34149m2.37272-3.68409c.00035.0984-.04374.18097-.13089.2473-.08784.067-.1919.10019-.3129.10019-.12207.00035-.22543-.0328-.31328-.0995-.08784-.0663-.13158-.14887-.13158-.24694 0-.0949.04304-.1764.13123-.24518.08714-.0677.19156-.10266.31327-.10266.121 0 .22472.0342.31291.1023.0875.0684.13124.14994.13124.24448m-.28117.95744l-.51047 2.25143c-.03069.13723-.04657.22472-.0462.26352-.00036.0981.08748.16792.26246.2099-.1524.0317-.38135.0476-.68686.048-.23742.00035-.3563-.0677-.3563-.20461-.00071-.0349.01305-.11254.0395-.23142l.43604-1.90923c.01764-.078.0268-.14288.02646-.1951 0-.11605-.0427-.19296-.1277-.23141zm3.00844-.01908l-.04657.7052c-.14782-.15381-.32985-.23071-.54504-.23071-.25612.00035-.50024.11782-.73343.35277l-.3556 1.50495c-.02258.0942-.03316.1577-.03316.18909.00035.0984.03845.17216.11465.22084l-1.1243.001c.14817-.0773.24412-.2159.28893-.41592l.43532-1.89371c.01764-.0776.02646-.1457.02646-.20567 0-.10125-.03986-.17145-.12065-.20991l.94227-.001-.08043.363c.28293-.30197.57362-.45296.87524-.45331.12912 0 .24871.0247.35631.073" fill="#1c4e9d"/></svg>